<svg xmlns="http://www.w3.org/2000/svg" xmlns:xlink="http://www.w3.org/1999/xlink" width="512" height="512" viewBox="0 0 512 512">
  <defs>
    <clipPath id="clip-Logo">
      <rect width="512" height="512"/>
    </clipPath>
  </defs>
  <g id="Logo" clip-path="url(#clip-Logo)">
    <rect width="512" height="512" fill="rgba(255,255,255,0)"/>
    <g id="Logo-2" data-name="Logo" transform="translate(-116.946 -113.612)">
      <g id="Cube" transform="translate(116.946 120.46)">
        <g id="Row" transform="translate(0 0)">
          <g id="Column_2" data-name="Column 2" transform="translate(196.76)">
            <g id="Cube-2" data-name="Cube" transform="translate(0 209.633)">
              <path id="Path_1" data-name="Path 1" d="M20.9,20.9,75.007,0,53.293,53.293,0,75.007Z" transform="translate(53.038 0) rotate(45)" fill="#e0d800"/>
              <path id="Path_3" data-name="Path 3" d="M163.369,217v49.774l52.959,21.983V238.979Z" transform="translate(-163.369 -163.962)" fill="#bab400"/>
              <path id="Path_4" data-name="Path 4" d="M216.328,217v49.774l-52.959,21.983V238.979Z" transform="translate(-110.693 -163.962)" fill="#fff700"/>
            </g>
            <g id="Cube-3" data-name="Cube" transform="translate(0 139.755)">
              <path id="Path_1-2" data-name="Path 1" d="M20.9,20.9,75.007,0,53.293,53.293,0,75.007Z" transform="translate(53.038 0) rotate(45)" fill="#e0d800"/>
              <path id="Path_3-2" data-name="Path 3" d="M163.369,217v49.774l52.959,21.983V238.979Z" transform="translate(-163.369 -163.962)" fill="#bab400"/>
              <path id="Path_4-2" data-name="Path 4" d="M216.328,217v49.774l-52.959,21.983V238.979Z" transform="translate(-110.693 -163.962)" fill="#fff700"/>
            </g>
            <g id="Cube-4" data-name="Cube" transform="translate(0 69.878)">
              <path id="Path_1-3" data-name="Path 1" d="M20.9,20.9,75.007,0,53.293,53.293,0,75.007Z" transform="translate(53.038 0) rotate(45)" fill="#e0d800"/>
              <path id="Path_3-3" data-name="Path 3" d="M163.369,217v49.774l52.959,21.983V238.979Z" transform="translate(-163.369 -163.962)" fill="#bab400"/>
              <path id="Path_4-3" data-name="Path 4" d="M216.328,217v49.774l-52.959,21.983V238.979Z" transform="translate(-110.693 -163.962)" fill="#fff700"/>
            </g>
            <g id="Cube-5" data-name="Cube" transform="translate(0)">
              <path id="Path_1-4" data-name="Path 1" d="M20.9,20.9,75.007,0,53.293,53.293,0,75.007Z" transform="translate(53.038 0) rotate(45)" fill="#00addd"/>
              <path id="Path_3-4" data-name="Path 3" d="M163.369,217v49.774l52.959,21.983V238.979Z" transform="translate(-163.369 -163.962)" fill="#006d8b"/>
              <path id="Path_4-4" data-name="Path 4" d="M216.328,217v49.774l-52.959,21.983V238.979Z" transform="translate(-110.693 -163.962)" fill="#23cefd"/>
            </g>
          </g>
          <g id="Column_1" data-name="Column 1" transform="translate(130.561 25.744)">
            <g id="Cube-6" data-name="Cube" transform="translate(0 209.633)">
              <path id="Path_1-5" data-name="Path 1" d="M20.9,20.9,75.007,0,53.293,53.293,0,75.007Z" transform="translate(53.038 0) rotate(45)" fill="#e0d800"/>
              <path id="Path_3-5" data-name="Path 3" d="M163.369,217v49.774l52.959,21.983V238.979Z" transform="translate(-163.369 -163.962)" fill="#bab400"/>
              <path id="Path_4-5" data-name="Path 4" d="M216.328,217v49.774l-52.959,21.983V238.979Z" transform="translate(-110.693 -163.962)" fill="#fff700"/>
            </g>
            <g id="Cube-7" data-name="Cube" transform="translate(0 139.755)">
              <path id="Path_1-6" data-name="Path 1" d="M20.9,20.9,75.007,0,53.293,53.293,0,75.007Z" transform="translate(53.038 0) rotate(45)" fill="#e0d800"/>
              <path id="Path_3-6" data-name="Path 3" d="M163.369,217v49.774l52.959,21.983V238.979Z" transform="translate(-163.369 -163.962)" fill="#bab400"/>
              <path id="Path_4-6" data-name="Path 4" d="M216.328,217v49.774l-52.959,21.983V238.979Z" transform="translate(-110.693 -163.962)" fill="#fff700"/>
            </g>
            <g id="Cube-8" data-name="Cube" transform="translate(0 69.878)">
              <path id="Path_1-7" data-name="Path 1" d="M20.9,20.9,75.007,0,53.293,53.293,0,75.007Z" transform="translate(53.038 0) rotate(45)" fill="#e0d800"/>
              <path id="Path_3-7" data-name="Path 3" d="M163.369,217v49.774l52.959,21.983V238.979Z" transform="translate(-163.369 -163.962)" fill="#bab400"/>
              <path id="Path_4-7" data-name="Path 4" d="M216.328,217v49.774l-52.959,21.983V238.979Z" transform="translate(-110.693 -163.962)" fill="#fff700"/>
            </g>
            <g id="Cube-9" data-name="Cube" transform="translate(0 0)">
              <path id="Path_1-8" data-name="Path 1" d="M20.9,20.9,75.007,0,53.293,53.293,0,75.007Z" transform="translate(53.038 0) rotate(45)" fill="#00addd"/>
              <path id="Path_3-8" data-name="Path 3" d="M163.369,217v49.774l52.959,21.983V238.979Z" transform="translate(-163.369 -163.962)" fill="#006d8b"/>
              <path id="Path_4-8" data-name="Path 4" d="M216.328,217v49.774l-52.959,21.983V238.979Z" transform="translate(-110.693 -163.962)" fill="#23cefd"/>
            </g>
          </g>
          <g id="Column_1-2" data-name="Column 1" transform="translate(66.2 53.328)">
            <g id="Cube-10" data-name="Cube" transform="translate(0 209.633)">
              <path id="Path_1-9" data-name="Path 1" d="M20.9,20.9,75.007,0,53.293,53.293,0,75.007Z" transform="translate(53.038 0) rotate(45)" fill="#e0d800"/>
              <path id="Path_3-9" data-name="Path 3" d="M163.369,217v49.774l52.959,21.983V238.979Z" transform="translate(-163.369 -163.962)" fill="#bab400"/>
              <path id="Path_4-9" data-name="Path 4" d="M216.328,217v49.774l-52.959,21.983V238.979Z" transform="translate(-110.693 -163.962)" fill="#fff700"/>
            </g>
            <g id="Cube-11" data-name="Cube" transform="translate(0 139.755)">
              <path id="Path_1-10" data-name="Path 1" d="M20.9,20.9,75.007,0,53.293,53.293,0,75.007Z" transform="translate(53.038 0) rotate(45)" fill="#e0d800"/>
              <path id="Path_3-10" data-name="Path 3" d="M163.369,217v49.774l52.959,21.983V238.979Z" transform="translate(-163.369 -163.962)" fill="#bab400"/>
              <path id="Path_4-10" data-name="Path 4" d="M216.328,217v49.774l-52.959,21.983V238.979Z" transform="translate(-110.693 -163.962)" fill="#fff700"/>
            </g>
            <g id="Cube-12" data-name="Cube" transform="translate(0 69.878)">
              <path id="Path_1-11" data-name="Path 1" d="M20.9,20.9,75.007,0,53.293,53.293,0,75.007Z" transform="translate(53.038 0) rotate(45)" fill="#e0d800"/>
              <path id="Path_3-11" data-name="Path 3" d="M163.369,217v49.774l52.959,21.983V238.979Z" transform="translate(-163.369 -163.962)" fill="#bab400"/>
              <path id="Path_4-11" data-name="Path 4" d="M216.328,217v49.774l-52.959,21.983V238.979Z" transform="translate(-110.693 -163.962)" fill="#fff700"/>
            </g>
            <g id="Cube-13" data-name="Cube">
              <path id="Path_1-12" data-name="Path 1" d="M20.9,20.9,75.007,0,53.293,53.293,0,75.007Z" transform="translate(53.038 0) rotate(45)" fill="#00addd"/>
              <path id="Path_3-12" data-name="Path 3" d="M163.369,217v49.774l52.959,21.983V238.979Z" transform="translate(-163.369 -163.962)" fill="#006d8b"/>
              <path id="Path_4-12" data-name="Path 4" d="M216.328,217v49.774l-52.959,21.983V238.979Z" transform="translate(-110.693 -163.962)" fill="#23cefd"/>
            </g>
          </g>
          <g id="Column_2-2" data-name="Column 2" transform="translate(0 80.911)">
            <g id="Cube-14" data-name="Cube" transform="translate(0 209.633)">
              <path id="Path_1-13" data-name="Path 1" d="M20.9,20.9,75.007,0,53.293,53.293,0,75.007Z" transform="translate(53.038 0) rotate(45)" fill="#e0d800"/>
              <path id="Path_3-13" data-name="Path 3" d="M163.369,217v49.774l52.959,21.983V238.979Z" transform="translate(-163.369 -163.962)" fill="#bab400"/>
              <path id="Path_4-13" data-name="Path 4" d="M216.328,217v49.774l-52.959,21.983V238.979Z" transform="translate(-110.693 -163.962)" fill="#fff700"/>
            </g>
            <g id="Cube-15" data-name="Cube" transform="translate(0 139.755)">
              <path id="Path_1-14" data-name="Path 1" d="M20.9,20.9,75.007,0,53.293,53.293,0,75.007Z" transform="translate(53.038 0) rotate(45)" fill="#e0d800"/>
              <path id="Path_3-14" data-name="Path 3" d="M163.369,217v49.774l52.959,21.983V238.979Z" transform="translate(-163.369 -163.962)" fill="#bab400"/>
              <path id="Path_4-14" data-name="Path 4" d="M216.328,217v49.774l-52.959,21.983V238.979Z" transform="translate(-110.693 -163.962)" fill="#fff700"/>
            </g>
            <g id="Cube-16" data-name="Cube" transform="translate(0 69.878)">
              <path id="Path_1-15" data-name="Path 1" d="M20.9,20.9,75.007,0,53.293,53.293,0,75.007Z" transform="translate(53.038 0) rotate(45)" fill="#e0d800"/>
              <path id="Path_3-15" data-name="Path 3" d="M163.369,217v49.774l52.959,21.983V238.979Z" transform="translate(-163.369 -163.962)" fill="#bab400"/>
              <path id="Path_4-15" data-name="Path 4" d="M216.328,217v49.774l-52.959,21.983V238.979Z" transform="translate(-110.693 -163.962)" fill="#fff700"/>
            </g>
            <g id="Cube-17" data-name="Cube">
              <path id="Path_1-16" data-name="Path 1" d="M20.9,20.9,75.007,0,53.293,53.293,0,75.007Z" transform="translate(53.038 0) rotate(45)" fill="#00addd"/>
              <path id="Path_3-16" data-name="Path 3" d="M163.369,217v49.774l52.959,21.983V238.979Z" transform="translate(-163.369 -163.962)" fill="#bab400"/>
              <path id="Path_4-16" data-name="Path 4" d="M216.328,217v49.774l-52.959,21.983V238.979Z" transform="translate(-110.693 -163.962)" fill="#23cefd"/>
            </g>
          </g>
        </g>
        <g id="Row-2" data-name="Row" transform="translate(69.878 27.583)">
          <g id="Column_2-3" data-name="Column 2" transform="translate(196.76)">
            <g id="Cube-18" data-name="Cube" transform="translate(0 209.633)">
              <path id="Path_1-17" data-name="Path 1" d="M20.9,20.9,75.007,0,53.293,53.293,0,75.007Z" transform="translate(53.038 0) rotate(45)" fill="#e0d800"/>
              <path id="Path_3-17" data-name="Path 3" d="M163.369,217v49.774l52.959,21.983V238.979Z" transform="translate(-163.369 -163.962)" fill="#bab400"/>
              <path id="Path_4-17" data-name="Path 4" d="M216.328,217v49.774l-52.959,21.983V238.979Z" transform="translate(-110.693 -163.962)" fill="#fff700"/>
            </g>
            <g id="Cube-19" data-name="Cube" transform="translate(0 139.755)">
              <path id="Path_1-18" data-name="Path 1" d="M20.9,20.9,75.007,0,53.293,53.293,0,75.007Z" transform="translate(53.038 0) rotate(45)" fill="#e0d800"/>
              <path id="Path_3-18" data-name="Path 3" d="M163.369,217v49.774l52.959,21.983V238.979Z" transform="translate(-163.369 -163.962)" fill="#bab400"/>
              <path id="Path_4-18" data-name="Path 4" d="M216.328,217v49.774l-52.959,21.983V238.979Z" transform="translate(-110.693 -163.962)" fill="#fff700"/>
            </g>
            <g id="Cube-20" data-name="Cube" transform="translate(0 69.878)">
              <path id="Path_1-19" data-name="Path 1" d="M20.9,20.9,75.007,0,53.293,53.293,0,75.007Z" transform="translate(53.038 0) rotate(45)" fill="#e0d800"/>
              <path id="Path_3-19" data-name="Path 3" d="M163.369,217v49.774l52.959,21.983V238.979Z" transform="translate(-163.369 -163.962)" fill="#bab400"/>
              <path id="Path_4-19" data-name="Path 4" d="M216.328,217v49.774l-52.959,21.983V238.979Z" transform="translate(-110.693 -163.962)" fill="#fff700"/>
            </g>
            <g id="Cube-21" data-name="Cube" transform="translate(0)">
              <path id="Path_1-20" data-name="Path 1" d="M20.9,20.9,75.007,0,53.293,53.293,0,75.007Z" transform="translate(53.038 0) rotate(45)" fill="#00addd"/>
              <path id="Path_3-20" data-name="Path 3" d="M163.369,217v49.774l52.959,21.983V238.979Z" transform="translate(-163.369 -163.962)" fill="#006d8b"/>
              <path id="Path_4-20" data-name="Path 4" d="M216.328,217v49.774l-52.959,21.983V238.979Z" transform="translate(-110.693 -163.962)" fill="#23cefd"/>
            </g>
          </g>
          <g id="Column_1-3" data-name="Column 1" transform="translate(130.561 25.744)">
            <g id="Cube-22" data-name="Cube" transform="translate(0 209.633)">
              <path id="Path_1-21" data-name="Path 1" d="M20.9,20.9,75.007,0,53.293,53.293,0,75.007Z" transform="translate(53.038 0) rotate(45)" fill="#e0d800"/>
              <path id="Path_3-21" data-name="Path 3" d="M163.369,217v49.774l52.959,21.983V238.979Z" transform="translate(-163.369 -163.962)" fill="#bab400"/>
              <path id="Path_4-21" data-name="Path 4" d="M216.328,217v49.774l-52.959,21.983V238.979Z" transform="translate(-110.693 -163.962)" fill="#fff700"/>
            </g>
            <g id="Cube-23" data-name="Cube" transform="translate(0 139.755)">
              <path id="Path_1-22" data-name="Path 1" d="M20.9,20.9,75.007,0,53.293,53.293,0,75.007Z" transform="translate(53.038 0) rotate(45)" fill="#e0d800"/>
              <path id="Path_3-22" data-name="Path 3" d="M163.369,217v49.774l52.959,21.983V238.979Z" transform="translate(-163.369 -163.962)" fill="#bab400"/>
              <path id="Path_4-22" data-name="Path 4" d="M216.328,217v49.774l-52.959,21.983V238.979Z" transform="translate(-110.693 -163.962)" fill="#fff700"/>
            </g>
            <g id="Cube-24" data-name="Cube" transform="translate(0 69.878)">
              <path id="Path_1-23" data-name="Path 1" d="M20.9,20.9,75.007,0,53.293,53.293,0,75.007Z" transform="translate(53.038 0) rotate(45)" fill="#e0d800"/>
              <path id="Path_3-23" data-name="Path 3" d="M163.369,217v49.774l52.959,21.983V238.979Z" transform="translate(-163.369 -163.962)" fill="#bab400"/>
              <path id="Path_4-23" data-name="Path 4" d="M216.328,217v49.774l-52.959,21.983V238.979Z" transform="translate(-110.693 -163.962)" fill="#fff700"/>
            </g>
            <g id="Cube-25" data-name="Cube" transform="translate(0 0)">
              <path id="Path_1-24" data-name="Path 1" d="M20.9,20.9,75.007,0,53.293,53.293,0,75.007Z" transform="translate(53.038 0) rotate(45)" fill="#00addd"/>
              <path id="Path_3-24" data-name="Path 3" d="M163.369,217v49.774l52.959,21.983V238.979Z" transform="translate(-163.369 -163.962)" fill="#006d8b"/>
              <path id="Path_4-24" data-name="Path 4" d="M216.328,217v49.774l-52.959,21.983V238.979Z" transform="translate(-110.693 -163.962)" fill="#23cefd"/>
            </g>
          </g>
          <g id="Column_1-4" data-name="Column 1" transform="translate(66.2 53.328)">
            <g id="Cube-26" data-name="Cube" transform="translate(0 209.633)">
              <path id="Path_1-25" data-name="Path 1" d="M20.9,20.9,75.007,0,53.293,53.293,0,75.007Z" transform="translate(53.038 0) rotate(45)" fill="#e0d800"/>
              <path id="Path_3-25" data-name="Path 3" d="M163.369,217v49.774l52.959,21.983V238.979Z" transform="translate(-163.369 -163.962)" fill="#bab400"/>
              <path id="Path_4-25" data-name="Path 4" d="M216.328,217v49.774l-52.959,21.983V238.979Z" transform="translate(-110.693 -163.962)" fill="#fff700"/>
            </g>
            <g id="Cube-27" data-name="Cube" transform="translate(0 139.755)">
              <path id="Path_1-26" data-name="Path 1" d="M20.9,20.9,75.007,0,53.293,53.293,0,75.007Z" transform="translate(53.038 0) rotate(45)" fill="#e0d800"/>
              <path id="Path_3-26" data-name="Path 3" d="M163.369,217v49.774l52.959,21.983V238.979Z" transform="translate(-163.369 -163.962)" fill="#bab400"/>
              <path id="Path_4-26" data-name="Path 4" d="M216.328,217v49.774l-52.959,21.983V238.979Z" transform="translate(-110.693 -163.962)" fill="#fff700"/>
            </g>
            <g id="Cube-28" data-name="Cube" transform="translate(0 69.878)">
              <path id="Path_1-27" data-name="Path 1" d="M20.9,20.9,75.007,0,53.293,53.293,0,75.007Z" transform="translate(53.038 0) rotate(45)" fill="#e0d800"/>
              <path id="Path_3-27" data-name="Path 3" d="M163.369,217v49.774l52.959,21.983V238.979Z" transform="translate(-163.369 -163.962)" fill="#bab400"/>
              <path id="Path_4-27" data-name="Path 4" d="M216.328,217v49.774l-52.959,21.983V238.979Z" transform="translate(-110.693 -163.962)" fill="#fff700"/>
            </g>
            <g id="Cube-29" data-name="Cube">
              <path id="Path_1-28" data-name="Path 1" d="M20.9,20.9,75.007,0,53.293,53.293,0,75.007Z" transform="translate(53.038 0) rotate(45)" fill="#00addd"/>
              <path id="Path_3-28" data-name="Path 3" d="M163.369,217v49.774l52.959,21.983V238.979Z" transform="translate(-163.369 -163.962)" fill="#006d8b"/>
              <path id="Path_4-28" data-name="Path 4" d="M216.328,217v49.774l-52.959,21.983V238.979Z" transform="translate(-110.693 -163.962)" fill="#23cefd"/>
            </g>
          </g>
          <g id="Column_2-4" data-name="Column 2" transform="translate(0 80.911)">
            <g id="Cube-30" data-name="Cube" transform="translate(0 209.633)">
              <path id="Path_1-29" data-name="Path 1" d="M20.9,20.9,75.007,0,53.293,53.293,0,75.007Z" transform="translate(53.038 0) rotate(45)" fill="#e0d800"/>
              <path id="Path_3-29" data-name="Path 3" d="M163.369,217v49.774l52.959,21.983V238.979Z" transform="translate(-163.369 -163.962)" fill="#bab400"/>
              <path id="Path_4-29" data-name="Path 4" d="M216.328,217v49.774l-52.959,21.983V238.979Z" transform="translate(-110.693 -163.962)" fill="#fff700"/>
            </g>
            <g id="Cube-31" data-name="Cube" transform="translate(0 139.755)">
              <path id="Path_1-30" data-name="Path 1" d="M20.9,20.9,75.007,0,53.293,53.293,0,75.007Z" transform="translate(53.038 0) rotate(45)" fill="#e0d800"/>
              <path id="Path_3-30" data-name="Path 3" d="M163.369,217v49.774l52.959,21.983V238.979Z" transform="translate(-163.369 -163.962)" fill="#bab400"/>
              <path id="Path_4-30" data-name="Path 4" d="M216.328,217v49.774l-52.959,21.983V238.979Z" transform="translate(-110.693 -163.962)" fill="#fff700"/>
            </g>
            <g id="Cube-32" data-name="Cube" transform="translate(0 69.878)">
              <path id="Path_1-31" data-name="Path 1" d="M20.9,20.9,75.007,0,53.293,53.293,0,75.007Z" transform="translate(53.038 0) rotate(45)" fill="#e0d800"/>
              <path id="Path_3-31" data-name="Path 3" d="M163.369,217v49.774l52.959,21.983V238.979Z" transform="translate(-163.369 -163.962)" fill="#bab400"/>
              <path id="Path_4-31" data-name="Path 4" d="M216.328,217v49.774l-52.959,21.983V238.979Z" transform="translate(-110.693 -163.962)" fill="#fff700"/>
            </g>
            <g id="Cube-33" data-name="Cube">
              <path id="Path_1-32" data-name="Path 1" d="M20.9,20.9,75.007,0,53.293,53.293,0,75.007Z" transform="translate(53.038 0) rotate(45)" fill="#00addd"/>
              <path id="Path_3-32" data-name="Path 3" d="M163.369,217v49.774l52.959,21.983V238.979Z" transform="translate(-163.369 -163.962)" fill="#bab400"/>
              <path id="Path_4-32" data-name="Path 4" d="M216.328,217v49.774l-52.959,21.983V238.979Z" transform="translate(-110.693 -163.962)" fill="#23cefd"/>
            </g>
          </g>
        </g>
        <g id="Row-3" data-name="Row" transform="translate(139.755 55.166)">
          <g id="Column_2-5" data-name="Column 2" transform="translate(196.76 0)">
            <g id="Cube-34" data-name="Cube" transform="translate(0 209.633)">
              <path id="Path_1-33" data-name="Path 1" d="M20.9,20.9,75.007,0,53.293,53.293,0,75.007Z" transform="translate(53.038 0) rotate(45)" fill="#e0d800"/>
              <path id="Path_3-33" data-name="Path 3" d="M163.369,217v49.774l52.959,21.983V238.979Z" transform="translate(-163.369 -163.962)" fill="#bab400"/>
              <path id="Path_4-33" data-name="Path 4" d="M216.328,217v49.774l-52.959,21.983V238.979Z" transform="translate(-110.693 -163.962)" fill="#fff700"/>
            </g>
            <g id="Cube-35" data-name="Cube" transform="translate(0 139.755)">
              <path id="Path_1-34" data-name="Path 1" d="M20.9,20.9,75.007,0,53.293,53.293,0,75.007Z" transform="translate(53.038 0) rotate(45)" fill="#e0d800"/>
              <path id="Path_3-34" data-name="Path 3" d="M163.369,217v49.774l52.959,21.983V238.979Z" transform="translate(-163.369 -163.962)" fill="#bab400"/>
              <path id="Path_4-34" data-name="Path 4" d="M216.328,217v49.774l-52.959,21.983V238.979Z" transform="translate(-110.693 -163.962)" fill="#fff700"/>
            </g>
            <g id="Cube-36" data-name="Cube" transform="translate(0 69.878)">
              <path id="Path_1-35" data-name="Path 1" d="M20.9,20.9,75.007,0,53.293,53.293,0,75.007Z" transform="translate(53.038 0) rotate(45)" fill="#e0d800"/>
              <path id="Path_3-35" data-name="Path 3" d="M163.369,217v49.774l52.959,21.983V238.979Z" transform="translate(-163.369 -163.962)" fill="#bab400"/>
              <path id="Path_4-35" data-name="Path 4" d="M216.328,217v49.774l-52.959,21.983V238.979Z" transform="translate(-110.693 -163.962)" fill="#fff700"/>
            </g>
            <g id="Cube-37" data-name="Cube" transform="translate(0)">
              <path id="Path_1-36" data-name="Path 1" d="M20.9,20.9,75.007,0,53.293,53.293,0,75.007Z" transform="translate(53.038 0) rotate(45)" fill="#00addd"/>
              <path id="Path_3-36" data-name="Path 3" d="M163.369,217v49.774l52.959,21.983V238.979Z" transform="translate(-163.369 -163.962)" fill="#006d8b"/>
              <path id="Path_4-36" data-name="Path 4" d="M216.328,217v49.774l-52.959,21.983V238.979Z" transform="translate(-110.693 -163.962)" fill="#23cefd"/>
            </g>
          </g>
          <g id="Column_1-5" data-name="Column 1" transform="translate(130.561 25.744)">
            <g id="Cube-38" data-name="Cube" transform="translate(0 209.633)">
              <path id="Path_1-37" data-name="Path 1" d="M20.9,20.9,75.007,0,53.293,53.293,0,75.007Z" transform="translate(53.038 0) rotate(45)" fill="#e0d800"/>
              <path id="Path_3-37" data-name="Path 3" d="M163.369,217v49.774l52.959,21.983V238.979Z" transform="translate(-163.369 -163.962)" fill="#bab400"/>
              <path id="Path_4-37" data-name="Path 4" d="M216.328,217v49.774l-52.959,21.983V238.979Z" transform="translate(-110.693 -163.962)" fill="#fff700"/>
            </g>
            <g id="Cube-39" data-name="Cube" transform="translate(0 139.755)">
              <path id="Path_1-38" data-name="Path 1" d="M20.9,20.9,75.007,0,53.293,53.293,0,75.007Z" transform="translate(53.038 0) rotate(45)" fill="#e0d800"/>
              <path id="Path_3-38" data-name="Path 3" d="M163.369,217v49.774l52.959,21.983V238.979Z" transform="translate(-163.369 -163.962)" fill="#bab400"/>
              <path id="Path_4-38" data-name="Path 4" d="M216.328,217v49.774l-52.959,21.983V238.979Z" transform="translate(-110.693 -163.962)" fill="#fff700"/>
            </g>
            <g id="Cube-40" data-name="Cube" transform="translate(0 69.878)">
              <path id="Path_1-39" data-name="Path 1" d="M20.9,20.9,75.007,0,53.293,53.293,0,75.007Z" transform="translate(53.038 0) rotate(45)" fill="#e0d800"/>
              <path id="Path_3-39" data-name="Path 3" d="M163.369,217v49.774l52.959,21.983V238.979Z" transform="translate(-163.369 -163.962)" fill="#bab400"/>
              <path id="Path_4-39" data-name="Path 4" d="M216.328,217v49.774l-52.959,21.983V238.979Z" transform="translate(-110.693 -163.962)" fill="#fff700"/>
            </g>
            <g id="Cube-41" data-name="Cube" transform="translate(0 0)">
              <path id="Path_1-40" data-name="Path 1" d="M20.9,20.9,75.007,0,53.293,53.293,0,75.007Z" transform="translate(53.038 0) rotate(45)" fill="#00addd"/>
              <path id="Path_3-40" data-name="Path 3" d="M163.369,217v49.774l52.959,21.983V238.979Z" transform="translate(-163.369 -163.962)" fill="#006d8b"/>
              <path id="Path_4-40" data-name="Path 4" d="M216.328,217v49.774l-52.959,21.983V238.979Z" transform="translate(-110.693 -163.962)" fill="#23cefd"/>
            </g>
          </g>
          <g id="Column_1-6" data-name="Column 1" transform="translate(66.2 53.328)">
            <g id="Cube-42" data-name="Cube" transform="translate(0 209.633)">
              <path id="Path_1-41" data-name="Path 1" d="M20.9,20.9,75.007,0,53.293,53.293,0,75.007Z" transform="translate(53.038 0) rotate(45)" fill="#e0d800"/>
              <path id="Path_3-41" data-name="Path 3" d="M163.369,217v49.774l52.959,21.983V238.979Z" transform="translate(-163.369 -163.962)" fill="#bab400"/>
              <path id="Path_4-41" data-name="Path 4" d="M216.328,217v49.774l-52.959,21.983V238.979Z" transform="translate(-110.693 -163.962)" fill="#fff700"/>
            </g>
            <g id="Cube-43" data-name="Cube" transform="translate(0 139.755)">
              <path id="Path_1-42" data-name="Path 1" d="M20.9,20.9,75.007,0,53.293,53.293,0,75.007Z" transform="translate(53.038 0) rotate(45)" fill="#e0d800"/>
              <path id="Path_3-42" data-name="Path 3" d="M163.369,217v49.774l52.959,21.983V238.979Z" transform="translate(-163.369 -163.962)" fill="#bab400"/>
              <path id="Path_4-42" data-name="Path 4" d="M216.328,217v49.774l-52.959,21.983V238.979Z" transform="translate(-110.693 -163.962)" fill="#fff700"/>
            </g>
            <g id="Cube-44" data-name="Cube" transform="translate(0 69.878)">
              <path id="Path_1-43" data-name="Path 1" d="M20.9,20.9,75.007,0,53.293,53.293,0,75.007Z" transform="translate(53.038 0) rotate(45)" fill="#e0d800"/>
              <path id="Path_3-43" data-name="Path 3" d="M163.369,217v49.774l52.959,21.983V238.979Z" transform="translate(-163.369 -163.962)" fill="#bab400"/>
              <path id="Path_4-43" data-name="Path 4" d="M216.328,217v49.774l-52.959,21.983V238.979Z" transform="translate(-110.693 -163.962)" fill="#fff700"/>
            </g>
            <g id="Cube-45" data-name="Cube">
              <path id="Path_1-44" data-name="Path 1" d="M20.9,20.9,75.007,0,53.293,53.293,0,75.007Z" transform="translate(53.038 0) rotate(45)" fill="#00addd"/>
              <path id="Path_3-44" data-name="Path 3" d="M163.369,217v49.774l52.959,21.983V238.979Z" transform="translate(-163.369 -163.962)" fill="#006d8b"/>
              <path id="Path_4-44" data-name="Path 4" d="M216.328,217v49.774l-52.959,21.983V238.979Z" transform="translate(-110.693 -163.962)" fill="#23cefd"/>
            </g>
          </g>
          <g id="Column_2-6" data-name="Column 2" transform="translate(0 80.911)">
            <g id="Cube-46" data-name="Cube" transform="translate(0 209.633)">
              <path id="Path_1-45" data-name="Path 1" d="M20.9,20.9,75.007,0,53.293,53.293,0,75.007Z" transform="translate(53.038 0) rotate(45)" fill="#e0d800"/>
              <path id="Path_3-45" data-name="Path 3" d="M163.369,217v49.774l52.959,21.983V238.979Z" transform="translate(-163.369 -163.962)" fill="#bab400"/>
              <path id="Path_4-45" data-name="Path 4" d="M216.328,217v49.774l-52.959,21.983V238.979Z" transform="translate(-110.693 -163.962)" fill="#fff700"/>
            </g>
            <g id="Cube-47" data-name="Cube" transform="translate(0 139.755)">
              <path id="Path_1-46" data-name="Path 1" d="M20.9,20.9,75.007,0,53.293,53.293,0,75.007Z" transform="translate(53.038 0) rotate(45)" fill="#e0d800"/>
              <path id="Path_3-46" data-name="Path 3" d="M163.369,217v49.774l52.959,21.983V238.979Z" transform="translate(-163.369 -163.962)" fill="#bab400"/>
              <path id="Path_4-46" data-name="Path 4" d="M216.328,217v49.774l-52.959,21.983V238.979Z" transform="translate(-110.693 -163.962)" fill="#fff700"/>
            </g>
            <g id="Cube-48" data-name="Cube" transform="translate(0 69.878)">
              <path id="Path_1-47" data-name="Path 1" d="M20.9,20.9,75.007,0,53.293,53.293,0,75.007Z" transform="translate(53.038 0) rotate(45)" fill="#e0d800"/>
              <path id="Path_3-47" data-name="Path 3" d="M163.369,217v49.774l52.959,21.983V238.979Z" transform="translate(-163.369 -163.962)" fill="#bab400"/>
              <path id="Path_4-47" data-name="Path 4" d="M216.328,217v49.774l-52.959,21.983V238.979Z" transform="translate(-110.693 -163.962)" fill="#fff700"/>
            </g>
            <g id="Cube-49" data-name="Cube">
              <path id="Path_1-48" data-name="Path 1" d="M20.9,20.9,75.007,0,53.293,53.293,0,75.007Z" transform="translate(53.038 0) rotate(45)" fill="#00addd"/>
              <path id="Path_3-48" data-name="Path 3" d="M163.369,217v49.774l52.959,21.983V238.979Z" transform="translate(-163.369 -163.962)" fill="#bab400"/>
              <path id="Path_4-48" data-name="Path 4" d="M216.328,217v49.774l-52.959,21.983V238.979Z" transform="translate(-110.693 -163.962)" fill="#23cefd"/>
            </g>
          </g>
        </g>
        <g id="Row-4" data-name="Row" transform="translate(209.633 82.75)">
          <g id="Column_2-7" data-name="Column 2" transform="translate(196.76)">
            <g id="Cube-50" data-name="Cube" transform="translate(0 209.633)">
              <path id="Path_1-49" data-name="Path 1" d="M20.9,20.9,75.007,0,53.293,53.293,0,75.007Z" transform="translate(53.038 0) rotate(45)" fill="#e0d800"/>
              <path id="Path_3-49" data-name="Path 3" d="M163.369,217v49.774l52.959,21.983V238.979Z" transform="translate(-163.369 -163.962)" fill="#bab400"/>
              <path id="Path_4-49" data-name="Path 4" d="M216.328,217v49.774l-52.959,21.983V238.979Z" transform="translate(-110.693 -163.962)" fill="#fff700"/>
            </g>
            <g id="Cube-51" data-name="Cube" transform="translate(0 139.755)">
              <path id="Path_1-50" data-name="Path 1" d="M20.9,20.9,75.007,0,53.293,53.293,0,75.007Z" transform="translate(53.038 0) rotate(45)" fill="#e0d800"/>
              <path id="Path_3-50" data-name="Path 3" d="M163.369,217v49.774l52.959,21.983V238.979Z" transform="translate(-163.369 -163.962)" fill="#bab400"/>
              <path id="Path_4-50" data-name="Path 4" d="M216.328,217v49.774l-52.959,21.983V238.979Z" transform="translate(-110.693 -163.962)" fill="#fff700"/>
            </g>
            <g id="Cube-52" data-name="Cube" transform="translate(0 69.878)">
              <path id="Path_1-51" data-name="Path 1" d="M20.9,20.9,75.007,0,53.293,53.293,0,75.007Z" transform="translate(53.038 0) rotate(45)" fill="#e0d800"/>
              <path id="Path_3-51" data-name="Path 3" d="M163.369,217v49.774l52.959,21.983V238.979Z" transform="translate(-163.369 -163.962)" fill="#bab400"/>
              <path id="Path_4-51" data-name="Path 4" d="M216.328,217v49.774l-52.959,21.983V238.979Z" transform="translate(-110.693 -163.962)" fill="#fff700"/>
            </g>
            <g id="Cube-53" data-name="Cube" transform="translate(0)">
              <path id="Path_1-52" data-name="Path 1" d="M20.9,20.9,75.007,0,53.293,53.293,0,75.007Z" transform="translate(53.038 0) rotate(45)" fill="#00addd"/>
              <path id="Path_3-52" data-name="Path 3" d="M163.369,217v49.774l52.959,21.983V238.979Z" transform="translate(-163.369 -163.962)" fill="#006d8b"/>
              <path id="Path_4-52" data-name="Path 4" d="M216.328,217v49.774l-52.959,21.983V238.979Z" transform="translate(-110.693 -163.962)" fill="#fff700"/>
            </g>
          </g>
          <g id="Column_1-7" data-name="Column 1" transform="translate(130.561 25.744)">
            <g id="Cube-54" data-name="Cube" transform="translate(0 209.633)">
              <path id="Path_1-53" data-name="Path 1" d="M20.9,20.9,75.007,0,53.293,53.293,0,75.007Z" transform="translate(53.038 0) rotate(45)" fill="#e0d800"/>
              <path id="Path_3-53" data-name="Path 3" d="M163.369,217v49.774l52.959,21.983V238.979Z" transform="translate(-163.369 -163.962)" fill="#bab400"/>
              <path id="Path_4-53" data-name="Path 4" d="M216.328,217v49.774l-52.959,21.983V238.979Z" transform="translate(-110.693 -163.962)" fill="#fff700"/>
            </g>
            <g id="Cube-55" data-name="Cube" transform="translate(0 139.755)">
              <path id="Path_1-54" data-name="Path 1" d="M20.9,20.9,75.007,0,53.293,53.293,0,75.007Z" transform="translate(53.038 0) rotate(45)" fill="#e0d800"/>
              <path id="Path_3-54" data-name="Path 3" d="M163.369,217v49.774l52.959,21.983V238.979Z" transform="translate(-163.369 -163.962)" fill="#bab400"/>
              <path id="Path_4-54" data-name="Path 4" d="M216.328,217v49.774l-52.959,21.983V238.979Z" transform="translate(-110.693 -163.962)" fill="#fff700"/>
            </g>
            <g id="Cube-56" data-name="Cube" transform="translate(0 69.878)">
              <path id="Path_1-55" data-name="Path 1" d="M20.9,20.9,75.007,0,53.293,53.293,0,75.007Z" transform="translate(53.038 0) rotate(45)" fill="#e0d800"/>
              <path id="Path_3-55" data-name="Path 3" d="M163.369,217v49.774l52.959,21.983V238.979Z" transform="translate(-163.369 -163.962)" fill="#bab400"/>
              <path id="Path_4-55" data-name="Path 4" d="M216.328,217v49.774l-52.959,21.983V238.979Z" transform="translate(-110.693 -163.962)" fill="#fff700"/>
            </g>
            <g id="Cube-57" data-name="Cube" transform="translate(0 0)">
              <path id="Path_1-56" data-name="Path 1" d="M20.9,20.9,75.007,0,53.293,53.293,0,75.007Z" transform="translate(53.038 0) rotate(45)" fill="#00addd"/>
              <path id="Path_3-56" data-name="Path 3" d="M163.369,217v49.774l52.959,21.983V238.979Z" transform="translate(-163.369 -163.962)" fill="#006d8b"/>
              <path id="Path_4-56" data-name="Path 4" d="M216.328,217v49.774l-52.959,21.983V238.979Z" transform="translate(-110.693 -163.962)" fill="#23cefd"/>
            </g>
          </g>
          <g id="Column_1-8" data-name="Column 1" transform="translate(66.2 53.328)">
            <g id="Cube-58" data-name="Cube" transform="translate(0 209.633)">
              <path id="Path_1-57" data-name="Path 1" d="M20.9,20.9,75.007,0,53.293,53.293,0,75.007Z" transform="translate(53.038 0) rotate(45)" fill="#e0d800"/>
              <path id="Path_3-57" data-name="Path 3" d="M163.369,217v49.774l52.959,21.983V238.979Z" transform="translate(-163.369 -163.962)" fill="#bab400"/>
              <path id="Path_4-57" data-name="Path 4" d="M216.328,217v49.774l-52.959,21.983V238.979Z" transform="translate(-110.693 -163.962)" fill="#fff700"/>
            </g>
            <g id="Cube-59" data-name="Cube" transform="translate(0 139.755)">
              <path id="Path_1-58" data-name="Path 1" d="M20.9,20.9,75.007,0,53.293,53.293,0,75.007Z" transform="translate(53.038 0) rotate(45)" fill="#e0d800"/>
              <path id="Path_3-58" data-name="Path 3" d="M163.369,217v49.774l52.959,21.983V238.979Z" transform="translate(-163.369 -163.962)" fill="#bab400"/>
              <path id="Path_4-58" data-name="Path 4" d="M216.328,217v49.774l-52.959,21.983V238.979Z" transform="translate(-110.693 -163.962)" fill="#fff700"/>
            </g>
            <g id="Cube-60" data-name="Cube" transform="translate(0 69.878)">
              <path id="Path_1-59" data-name="Path 1" d="M20.9,20.9,75.007,0,53.293,53.293,0,75.007Z" transform="translate(53.038 0) rotate(45)" fill="#e0d800"/>
              <path id="Path_3-59" data-name="Path 3" d="M163.369,217v49.774l52.959,21.983V238.979Z" transform="translate(-163.369 -163.962)" fill="#bab400"/>
              <path id="Path_4-59" data-name="Path 4" d="M216.328,217v49.774l-52.959,21.983V238.979Z" transform="translate(-110.693 -163.962)" fill="#fff700"/>
            </g>
            <g id="Cube-61" data-name="Cube">
              <path id="Path_1-60" data-name="Path 1" d="M20.9,20.9,75.007,0,53.293,53.293,0,75.007Z" transform="translate(53.038 0) rotate(45)" fill="#00addd"/>
              <path id="Path_3-60" data-name="Path 3" d="M163.369,217v49.774l52.959,21.983V238.979Z" transform="translate(-163.369 -163.962)" fill="#006d8b"/>
              <path id="Path_4-60" data-name="Path 4" d="M216.328,217v49.774l-52.959,21.983V238.979Z" transform="translate(-110.693 -163.962)" fill="#fff700"/>
            </g>
          </g>
          <g id="Column_2-8" data-name="Column 2" transform="translate(0 80.911)">
            <g id="Cube-62" data-name="Cube" transform="translate(0 209.633)">
              <path id="Path_1-61" data-name="Path 1" d="M20.9,20.9,75.007,0,53.293,53.293,0,75.007Z" transform="translate(53.038 0) rotate(45)" fill="#e0d800"/>
              <path id="Path_3-61" data-name="Path 3" d="M163.369,217v49.774l52.959,21.983V238.979Z" transform="translate(-163.369 -163.962)" fill="#bab400"/>
              <path id="Path_4-61" data-name="Path 4" d="M216.328,217v49.774l-52.959,21.983V238.979Z" transform="translate(-110.693 -163.962)" fill="#fff700"/>
            </g>
            <g id="Cube-63" data-name="Cube" transform="translate(0 139.755)">
              <path id="Path_1-62" data-name="Path 1" d="M20.9,20.9,75.007,0,53.293,53.293,0,75.007Z" transform="translate(53.038 0) rotate(45)" fill="#e0d800"/>
              <path id="Path_3-62" data-name="Path 3" d="M163.369,217v49.774l52.959,21.983V238.979Z" transform="translate(-163.369 -163.962)" fill="#bab400"/>
              <path id="Path_4-62" data-name="Path 4" d="M216.328,217v49.774l-52.959,21.983V238.979Z" transform="translate(-110.693 -163.962)" fill="#fff700"/>
            </g>
            <g id="Cube-64" data-name="Cube" transform="translate(0 69.878)">
              <path id="Path_1-63" data-name="Path 1" d="M20.9,20.9,75.007,0,53.293,53.293,0,75.007Z" transform="translate(53.038 0) rotate(45)" fill="#e0d800"/>
              <path id="Path_3-63" data-name="Path 3" d="M163.369,217v49.774l52.959,21.983V238.979Z" transform="translate(-163.369 -163.962)" fill="#bab400"/>
              <path id="Path_4-63" data-name="Path 4" d="M216.328,217v49.774l-52.959,21.983V238.979Z" transform="translate(-110.693 -163.962)" fill="#fff700"/>
            </g>
            <g id="Cube-65" data-name="Cube">
              <path id="Path_1-64" data-name="Path 1" d="M20.9,20.9,75.007,0,53.293,53.293,0,75.007Z" transform="translate(53.038 0) rotate(45)" fill="#00addd"/>
              <path id="Path_3-64" data-name="Path 3" d="M163.369,217v49.774l52.959,21.983V238.979Z" transform="translate(-163.369 -163.962)" fill="#bab400"/>
              <path id="Path_4-64" data-name="Path 4" d="M216.328,217v49.774l-52.959,21.983V238.979Z" transform="translate(-110.693 -163.962)" fill="#fff700"/>
            </g>
          </g>
        </g>
      </g>
      <path id="Path_5" data-name="Path 5" d="M116.946,193.308v259.4l261.7,103.845V297.607Z" transform="translate(0 61.111)" fill="#202020"/>
      <path id="Path_6" data-name="Path 6" d="M368.532,194.131v259.4L116.946,555.862V296.916Z" transform="translate(261.121 61.802)" fill="#575757"/>
      <path id="Icon_awesome-code" data-name="Icon awesome-code" d="M57.821,106.027l-12.645-3.669a2.491,2.491,0,0,1-1.7-3.089L71.773,1.8A2.491,2.491,0,0,1,74.861.1L87.507,3.765a2.491,2.491,0,0,1,1.7,3.089l-28.3,97.473a2.484,2.484,0,0,1-3.089,1.7ZM34.189,82.767l9.018-9.619a2.488,2.488,0,0,0-.166-3.566L24.259,53.061,43.041,36.539a2.47,2.47,0,0,0,.166-3.566l-9.018-9.619a2.49,2.49,0,0,0-3.524-.1L.793,51.237a2.471,2.471,0,0,0,0,3.628L30.665,82.871a2.472,2.472,0,0,0,3.524-.1Zm67.829.124L131.89,54.885a2.471,2.471,0,0,0,0-3.628L102.018,23.231a2.51,2.51,0,0,0-3.524.1l-9.018,9.619a2.488,2.488,0,0,0,.166,3.566l18.781,16.543L89.642,69.583a2.47,2.47,0,0,0-.166,3.566l9.018,9.619A2.491,2.491,0,0,0,102.018,82.892Z" transform="translate(189.567 365.757) rotate(17)" fill="#3193c6"/>
      <g id="Group_3" data-name="Group 3" transform="matrix(0.883, -0.469, 0.469, 0.883, 432.443, 411.801)">
        <circle id="Ellipse_1" data-name="Ellipse 1" cx="11.033" cy="11.033" r="11.033" transform="translate(0 0)" fill="#00ceff"/>
        <circle id="Ellipse_2" data-name="Ellipse 2" cx="11.033" cy="11.033" r="11.033" transform="translate(8.618 97.58)" fill="#00ceff"/>
        <circle id="Ellipse_3" data-name="Ellipse 3" cx="11.033" cy="11.033" r="11.033" transform="translate(65.084 13.256)" fill="#00ceff"/>
        <circle id="Ellipse_4" data-name="Ellipse 4" cx="11.033" cy="11.033" r="11.033" transform="translate(81.176 113.296)" fill="#00ceff"/>
        <line id="Line_1" data-name="Line 1" x2="9.777" y2="96.62" transform="translate(11.528 11.787)" fill="none" stroke="#23cefd" stroke-linecap="round" stroke-width="2"/>
        <line id="Line_2" data-name="Line 2" y1="82.142" x2="52.934" transform="translate(21.305 26.265)" fill="none" stroke="#23cefd" stroke-linecap="round" stroke-width="2"/>
        <line id="Line_4" data-name="Line 4" x2="44.794" y2="10.341" transform="translate(42.121 75.467)" fill="none" stroke="#23cefd" stroke-linecap="round" stroke-width="2"/>
        <line id="Line_3" data-name="Line 3" x1="16.53" y1="100.066" transform="translate(76.445 24.887)" fill="none" stroke="#23cefd" stroke-linecap="round" stroke-width="2"/>
      </g>
    </g>
  </g>
</svg>
